<?xml version="1.0" encoding="UTF-8"?>
<svg width="463px" height="406px" viewBox="0 0 463 406" version="1.1" xmlns="http://www.w3.org/2000/svg" xmlns:xlink="http://www.w3.org/1999/xlink">
    <!-- Generator: Sketch 47.1 (45422) - http://www.bohemiancoding.com/sketch -->
    <title>sextant</title>
    <desc>Created with Sketch.</desc>
    <defs></defs>
    <g id="Page-1" stroke="none" stroke-width="1" fill="none" fill-rule="evenodd">
        <g id="sextant" transform="translate(225.000000, 183.500000) rotate(39.000000) translate(-225.000000, -183.500000) translate(4.000000, -41.000000)" fill-rule="nonzero" fill="#000000">
            <path d="M305.516121,105 L305.44118,105 C303.523217,105 302,106.565674 302,108.5 C302,110.435201 303.591186,112 305.516121,112 C307.435827,112 309,110.435201 309,108.5 C309,106.565674 307.435827,105 305.516121,105 Z" id="Shape"></path>
            <path d="M305.516121,126 L305.44118,126 C303.523217,126 302,127.564799 302,129.5 C302,131.434326 303.591186,133 305.516121,133 C307.435827,133 309,131.434326 309,129.5 C309,127.564799 307.435827,126 305.516121,126 Z" id="Shape"></path>
            <path d="M220.500438,358 C203.129884,358 189,372.129687 189,389.5 C189,406.870313 203.129884,421 220.500438,421 C237.870992,421 252,406.870313 252,389.5 C252,372.129687 237.870116,358 220.500438,358 Z M220.500438,413.999514 C206.99312,413.999514 196.000584,403.00713 196.000584,389.5 C196.000584,375.99287 206.992245,365.000486 220.500438,365.000486 C234.008631,365.000486 245.000292,375.99287 245.000292,389.5 C245.000292,403.00713 234.008631,413.999514 220.500438,413.999514 Z" id="Shape"></path>
            <path d="M220.499416,372 C210.847857,372 203,379.847636 203,389.5 C203,391.435201 204.565544,393 206.499708,393 C208.434748,393 209.999416,391.435201 209.999416,389.5 C209.999416,383.710158 214.709181,379 220.499416,379 C222.433581,379 224,377.434326 224,375.499124 C224,373.564799 222.432705,372 220.499416,372 Z" id="Shape"></path>
            <path d="M234.499416,386 C232.565252,386 231.000584,387.565674 231.000584,389.5 C231.000584,395.289842 226.290819,400 220.500584,400 C218.565544,400 217,401.565674 217,403.500876 C217,405.435201 218.565544,407 220.500584,407 C230.152143,407 238,399.152364 238,389.5 C238,387.565674 236.435332,386 234.499416,386 Z" id="Shape"></path>
            <path d="M220.500876,344 C195.412524,344 175,364.413164 175,389.50035 L175,445.500175 C175,447.434404 176.565614,449 178.499865,449 L262.487,449 C264.421252,449 265.98599,447.434404 265.98599,445.500175 L266,389.50035 C266,364.412289 245.589227,344 220.500876,344 Z M258.986259,442.00035 L181.999731,442.00035 L181.999731,389.501226 C181.999731,368.268488 199.274022,351.001401 220.5,351.001401 C241.725102,351.001401 259.000269,368.267612 258.986259,389.774417 L258.986259,442.00035 Z" id="Shape"></path>
            <path d="M304.501095,421 L269.500657,421 C267.566452,421 266,422.565674 266,424.5 C266,426.434326 267.566452,428 269.500657,428 L304.501095,428 C306.435299,428 308,426.434326 308,424.5 C308,422.565674 306.435299,421 304.501095,421 Z" id="Shape"></path>
            <path d="M304.501095,435 L269.500657,435 C267.566452,435 266,436.564799 266,438.499124 C266,440.434326 267.566452,442 269.500657,442 L304.501095,442 C306.435299,442 308,440.434326 308,438.499124 C308,436.564799 306.435299,435 304.501095,435 Z" id="Shape"></path>
            <path d="M304.500876,421 C302.564799,421 301,422.565609 301,424.499854 L301,438.49927 C301,440.434391 302.564799,442 304.500876,442 C306.435201,442 308,440.434391 308,438.49927 L308,424.499854 C308,422.565609 306.435201,421 304.500876,421 Z" id="Shape"></path>
            <path d="M171.500219,428 L150.500657,428 C148.565576,428 147,429.565478 147,431.499562 C147,433.434522 148.566452,435 150.500657,435 L171.500219,435 C173.434424,435 175,433.434522 175,431.499562 C175,429.565478 173.434424,428 171.500219,428 Z" id="Shape"></path>
            <path d="M150.500109,421 L129.499891,421 C127.565625,421 126,422.565609 126,424.499854 L126,438.49927 C126,440.434391 127.565625,442 129.499891,442 L150.500109,442 C152.434375,442 154,440.434391 154,438.49927 L154,424.499854 C154,422.565609 152.434375,421 150.500109,421 Z M146.999343,435.000292 L132.999781,435.000292 L132.999781,427.999708 L146.999343,427.999708 L146.999343,435.000292 Z" id="Shape"></path>
            <path d="M199.5,63 C197.565674,63 196,64.564735 196,66.4998577 L196,339.501018 C196,341.435265 197.565674,343 199.5,343 C201.435201,343 203,341.435265 203,339.501018 L203,66.4998577 C203,64.564735 201.434326,63 199.5,63 Z" id="Shape"></path>
            <path d="M241.500876,63 C239.564799,63 238,64.5647986 238,66.5 L238,80.5 C238,82.4352014 239.564799,84 241.500876,84 C243.435201,84 245,82.4352014 245,80.5 L245,66.5 C245,64.5647986 243.435201,63 241.500876,63 Z" id="Shape"></path>
            <path d="M220.500438,0 C199.274367,0 182,17.2485937 182,38.4507918 C182,53.743134 191.064489,67.585559 205.099037,73.7061688 C205.55699,73.9081777 206.028953,74 206.50004,74 C207.846754,74 209.132174,73.2173245 209.706585,71.9038289 C210.478013,70.1355944 209.67156,68.0735287 207.901043,67.3022217 C196.416321,62.2913496 188.999761,50.9657291 188.999761,38.4507918 C188.999761,21.1025053 203.129752,6.99073505 220.500438,6.99073505 C237.870248,6.99073505 252.000239,21.1025053 252.000239,38.4507918 C252.000239,50.9543607 244.582804,62.2773576 233.098957,67.2952257 C231.32844,68.0700307 230.521112,70.1294729 231.29429,71.8968329 C232.072723,73.6764358 234.152336,74.4783503 235.901839,73.7000473 C249.935511,67.5689435 259,53.7335145 259,38.4507918 C259,17.2485937 241.725633,0 220.500438,0 Z" id="Shape"></path>
            <path d="M310.831659,395.306212 L308.709275,388.483126 C308.124265,386.598791 306.177384,385.561509 304.377616,386.177956 C302.571826,386.794403 301.58333,388.811538 302.168341,390.69677 L304.290725,397.519857 C304.761314,399.040784 306.11028,400 307.560762,400 C307.910048,400 308.273098,399.944367 308.622384,399.824129 C310.428174,399.208579 311.41667,397.190547 310.831659,395.306212 Z" id="Shape"></path>
            <path d="M350.622315,378.002894 L347.50579,371.871137 C346.651995,370.185937 344.569148,369.520975 342.883074,370.366586 C341.188394,371.226821 340.511038,373.294827 341.376883,374.987769 L344.495129,381.119526 C345.101048,382.307511 346.309444,383 347.560013,383 C348.085029,383 348.621233,382.879567 349.117846,382.630099 C350.810805,381.770724 351.489882,379.695837 350.622315,378.002894 Z" id="Shape"></path>
            <path d="M388.344122,354.305993 L384.277081,348.485333 C383.132657,346.872974 380.972991,346.521758 379.430619,347.68589 C377.885647,348.850022 377.535384,351.093851 378.658133,352.707108 L382.725173,358.513396 C383.409227,359.480811 384.466085,360 385.534214,360 C386.245144,360 386.956074,359.775437 387.571635,359.312839 C389.116608,358.147808 389.461669,355.90398 388.344122,354.305993 Z" id="Shape"></path>
            <path d="M421.974965,326.004339 L417.010996,321.036958 C415.636954,319.650099 413.405235,319.663282 412.032073,321.022896 C410.657151,322.393936 410.657151,324.61748 412.025035,325.990277 L416.990763,330.970842 C417.676025,331.65724 418.583843,332 419.483744,332 C420.381885,332 421.282666,331.65724 421.967927,330.970842 C423.342849,329.605954 423.342849,327.376258 421.974965,326.004339 Z" id="Shape"></path>
            <path d="M439.715956,303.789268 C438.225392,302.566498 436.010988,302.786421 434.789128,304.296849 C394.452858,353.992304 337.991707,388.359158 275.801991,401.036373 C273.909683,401.421677 272.686948,403.275184 273.070311,405.184992 C273.403784,406.845847 274.867216,408 276.49257,408 C276.725389,408 276.957332,407.97273 277.196277,407.932264 C340.957081,394.924286 398.853655,359.692696 440.214853,308.734006 C441.430587,307.236773 441.211772,305.018195 439.715956,303.789268 Z" id="Shape"></path>
            <path d="M415.671204,279.757046 C414.158887,278.558329 411.953571,278.806887 410.747401,280.33437 C376.032529,324.359895 327.033101,355.14665 272.758984,367.036865 C270.868588,367.450246 269.669436,369.328529 270.080849,371.227086 C270.436998,372.871796 271.88791,374 273.505493,374 C273.750236,374 273.99761,373.972676 274.251125,373.918029 C330.099841,361.683183 380.532637,330.002679 416.239639,284.711449 C417.444054,283.183967 417.190539,280.967222 415.671204,279.757046 Z" id="Shape"></path>
            <path d="M440.970444,304.999966 L415.999918,280.029868 C414.626297,278.656271 412.402297,278.65715 411.029556,280.029868 C409.656815,281.402586 409.656815,283.626547 411.029556,285.000144 L436.000082,309.970242 C436.685134,310.656161 437.585638,311 438.485263,311 C439.384009,311 440.283634,310.656161 440.970444,309.970242 C442.343185,308.597524 442.343185,306.373563 440.970444,304.999966 Z" id="Shape"></path>
            <path d="M137.622574,386.178049 C135.835913,385.561567 133.874629,386.598011 133.290545,388.483353 L131.168401,395.306836 C130.583456,397.190383 131.57098,399.208533 133.377426,399.825016 C133.726672,399.944364 134.088822,400 134.438068,400 C135.888386,400 137.238059,399.040728 137.709455,397.52061 L139.831599,390.697126 C140.416544,388.812682 139.42902,386.795429 137.622574,386.178049 Z" id="Shape"></path>
            <path d="M98.1178386,370.367812 C96.4311679,369.522283 94.3486458,370.180299 93.4949839,371.872218 L90.3772247,378.003379 C89.5106546,379.696157 90.188765,381.770843 91.8823201,382.630135 C92.3797159,382.878719 92.9166968,383 93.4407695,383 C94.6902827,383 95.8993502,382.308438 96.5051748,381.119708 L99.6229341,374.988547 C100.489504,373.295769 99.8105331,371.227964 98.1178386,370.367812 Z" id="Shape"></path>
            <path d="M61.5700145,347.68589 C60.0197859,346.521758 57.8609105,346.872974 56.7233826,348.485333 L52.655333,354.305993 C51.5386135,355.90398 51.8836868,358.147808 53.4269793,359.312839 C54.0434292,359.775437 54.7535172,360 55.4644721,360 C56.5343726,360 57.5904008,359.480811 58.2736112,358.513396 L62.3416608,352.707108 C63.4653164,351.093851 63.113307,348.850022 61.5700145,347.68589 Z" id="Shape"></path>
            <path d="M29.9686249,321.022293 C28.5955128,319.663484 26.3638759,319.6503 24.9898842,321.036356 L20.024338,326.00401 C18.6573834,327.375125 18.6573834,329.604944 20.0313751,330.970785 C20.7183709,331.657221 21.6182387,332 22.5172269,332 C23.4162151,332 24.32312,331.657221 25.0101158,330.970785 L29.975662,325.989947 C31.3426166,324.617075 31.3426166,322.394287 29.9686249,321.022293 Z" id="Shape"></path>
            <path d="M165.196321,401.036373 C103.008905,388.359158 46.5465017,353.992304 6.21146211,304.296849 C4.98786205,302.786421 2.77435378,302.566498 1.28467759,303.789268 C-0.212000595,305.018195 -0.430813196,307.236773 0.785784864,308.734006 C42.1466179,359.692696 100.042682,394.924286 163.802048,407.932264 C164.040991,407.97273 164.272932,408 164.505749,408 C166.131964,408 167.594508,406.845847 167.929728,405.184992 C168.313088,403.275184 167.089488,401.421677 165.196321,401.036373 Z" id="Shape"></path>
            <path d="M169.241286,367.03602 C114.968187,355.145869 65.9671312,324.35928 31.2532255,280.333991 C30.0479364,278.806516 27.8364853,278.558841 26.3294353,279.756671 C24.8092271,280.966839 24.5557128,283.183573 25.761002,284.711047 C61.4679115,330.002034 111.8997,361.682368 167.748271,373.917148 C168.001785,373.972676 168.248282,374 168.494778,374 C170.11148,374 171.563266,372.871802 171.919414,371.226219 C172.329949,369.327673 171.131677,367.449399 169.241286,367.03602 Z" id="Shape"></path>
            <path d="M30.9701177,280.030187 C29.597381,278.656604 27.3733893,278.656604 25.9997733,280.030187 L1.03021205,305.000027 C-0.343404017,306.372731 -0.343404017,308.596669 1.03021205,309.970252 C1.71614069,310.656165 2.61576248,311 3.51538427,311 C4.41500606,311 5.31374845,310.656165 6.00055649,309.970252 L30.9701177,285.000412 C32.3437338,283.627709 32.3428544,281.40377 30.9701177,280.030187 Z" id="Shape"></path>
            <path d="M220.5,21 C210.848119,21 203,28.8524967 203,38.5008756 C203,48.1492545 210.848119,56 220.5,56 C230.151881,56 238,48.1483789 238,38.5 C238,28.8516211 230.151881,21 220.5,21 Z M220.5,49.0003502 C214.710447,49.0003502 209.99965,44.2895527 209.99965,38.5 C209.99965,32.7104473 214.709572,28.0005254 220.5,28.0005254 C226.290428,28.0005254 231.00035,32.7113229 231.00035,38.5008756 C231.00035,44.2904283 226.289553,49.0003502 220.5,49.0003502 Z" id="Shape"></path>
            <path d="M386.471745,292.634744 L301.473149,155.652883 C300.448922,154.000075 298.294543,153.513283 296.647901,154.528165 C295.008262,155.553591 294.50928,157.718674 295.528255,159.364452 L380.5251,296.340162 C381.187784,297.409523 382.337194,298 383.497985,298 C384.134406,298 384.770828,297.828656 385.352099,297.464002 C386.991738,296.442969 387.49072,294.281401 386.471745,292.634744 Z" id="Shape"></path>
            <path d="M322.473839,217.615651 L282.448388,152.659726 C281.426477,151.000969 279.282381,150.510041 277.642265,151.53156 C276.007381,152.56013 275.51212,154.730968 276.525312,156.382674 L316.552507,221.338599 C317.211692,222.41212 318.356547,223 319.512737,223 C320.145764,223 320.779663,222.829012 321.35863,222.466765 C322.99177,221.438195 323.488775,219.267357 322.473839,217.615651 Z" id="Shape"></path>
            <path d="M375.475173,302.633787 L330.431143,229.648374 C329.411823,228.000945 327.273164,227.514703 325.637207,228.525805 C324.008209,229.550073 323.512464,231.71534 324.524827,233.360137 L369.568857,306.34906 C370.227241,307.417212 371.367453,308 372.52245,308 C373.153002,308 373.784424,307.82885 374.362793,307.471629 C375.991791,306.444729 376.487536,304.278583 375.475173,302.633787 Z" id="Shape"></path>
            <g id="Group" transform="translate(252.000000, 215.000000)">
                <path d="M4.21274725,46.7794366 C4.51428571,46.7794366 4.82901099,46.7383944 5.13934066,46.6571831 C30.4316484,39.785662 53.149011,25.8435211 70.8210989,6.34932394 C72.1257143,4.91808451 72.0096703,2.71140845 70.567033,1.41988732 C69.1261538,0.13884507 66.9028571,0.243633803 65.6061538,1.67923944 C48.8237363,20.1788169 27.28,33.4040282 3.28615385,39.9218873 C1.41274725,40.4327324 0.313846154,42.3486197 0.821978022,44.209493 C1.24747253,45.7568732 2.66725275,46.7794366 4.21274725,46.7794366 Z" id="Shape"></path>
                <path d="M78.3349451,13.7692394 C76.9362637,12.4506479 74.7191209,12.5012958 73.3661538,13.8923662 C54.2725275,33.8258028 30.0659341,47.8089859 3.37494505,54.3268451 C1.48747253,54.7826761 0.334065934,56.6784789 0.800879121,58.546338 C1.19208791,60.1417465 2.62593407,61.2053521 4.21274725,61.2053521 C4.48703297,61.2053521 4.76835165,61.1774085 5.04879121,61.1023099 C33.0523077,54.2648451 58.4316484,39.6075211 78.4589011,18.7047887 C79.7978022,17.3076056 79.7432967,15.0983099 78.3349451,13.7692394 Z" id="Shape"></path>
            </g>
            <path d="M187.354127,86.5254427 C185.716078,85.5167013 183.566685,85.9973473 182.53613,87.6501718 L55.5270353,292.635569 C54.5104661,294.282243 55.0078246,296.443832 56.6458734,297.464875 C57.2262706,297.828655 57.8608615,298 58.4954525,298 C59.6553729,298 60.8021818,297.410396 61.4638696,296.341025 L188.472965,91.361778 C189.489534,89.7151042 188.992175,87.5508794 187.354127,86.5254427 Z" id="Shape"></path>
            <path d="M187.355773,112.525855 C185.719154,111.514069 183.571638,112.002457 182.541983,113.646171 L118.526963,216.653991 C117.510408,218.294204 118.008205,220.449938 119.644824,221.471351 C120.223841,221.830202 120.857878,222 121.491915,222 C122.650822,222 123.79663,221.41621 124.458614,220.351035 L188.473634,117.343214 C189.489316,115.703001 188.991518,113.547268 187.355773,112.525855 Z" id="Shape"></path>
            <path d="M115.362386,228.526192 C113.739516,227.514217 111.586994,228.001334 110.568569,229.648755 L65.5247762,302.633813 C64.5124388,304.278601 65.008171,306.444736 66.6379993,307.471632 C67.2154839,307.828851 67.8468901,308 68.4782964,308 C69.6323958,308 70.7734495,307.417215 71.4318167,306.349068 L116.47561,233.3605 C117.487077,231.715712 116.992215,229.550454 115.362386,228.526192 Z" id="Shape"></path>
            <g id="Group" transform="translate(110.000000, 215.000000)">
                <path d="M74.4294111,46.6563099 C74.7375111,46.7383944 75.0535111,46.7794366 75.3545889,46.7794366 C76.8968444,46.7794366 78.3153333,45.7568732 78.7410556,44.2086197 C79.2475333,42.3477465 78.1511889,40.4318592 76.2806444,39.9210141 C52.3225778,33.4031549 30.8117556,20.1779437 14.0567333,1.6783662 C12.7611333,0.236647887 10.5412333,0.130985915 9.10167778,1.41901408 C7.66212222,2.71140845 7.54625556,4.91721127 8.848,6.3484507 C26.4948444,25.8426479 49.1766222,39.7847887 74.4294111,46.6563099 Z" id="Shape"></path>
                <path d="M76.1911111,54.3277183 C49.5400222,47.8098592 25.3704111,33.8266761 6.30595556,13.8932394 C4.95593333,12.4951831 2.7492,12.4471549 1.34475556,13.7701127 C-0.0596888889,15.0991831 -0.114988889,17.3076056 1.22098889,18.705662 C21.2167667,39.6083944 46.5582111,54.2657183 74.5180667,61.1031831 C74.7998333,61.1782817 75.0807222,61.2053521 75.3545889,61.2053521 C76.9381,61.2053521 78.3697556,60.1417465 78.7612444,58.5472113 C79.2264667,56.6793521 78.0748222,54.7835493 76.1911111,54.3277183 Z" id="Shape"></path>
            </g>
            <path d="M290.499726,95 L241.500274,95 C239.564529,95 238,96.5647986 238,98.5 C238,100.434326 239.564529,102 241.500274,102 L290.499726,102 C292.435471,102 294,100.434326 294,98.5 C294,96.5647986 292.435471,95 290.499726,95 Z" id="Shape"></path>
            <path d="M290.499289,137 L241.500711,137 C239.564725,137 238,138.565674 238,140.5 C238,142.435201 239.564725,144 241.500711,144 L290.499289,144 C292.435275,144 294,142.435201 294,140.5 C294,138.565674 292.435275,137 290.499289,137 Z" id="Shape"></path>
            <path d="M220.5,91 C218.565283,91 217,92.5647497 217,94.4998905 L217,143.500109 C217,145.43525 218.565283,147 220.5,147 C222.433842,147 224,145.434375 224,143.500109 L224,94.4998905 C224,92.5647497 222.432966,91 220.5,91 Z" id="Shape"></path>
            <path d="M241.500876,154 C239.564799,154 238,155.564741 238,157.49987 L238,339.501005 C238,341.435259 239.564799,343 241.500876,343 C243.435201,343 245,341.435259 245,339.501881 L245,157.49987 C245,155.564741 243.435201,154 241.500876,154 Z" id="Shape"></path>
            <path d="M241.501095,91 L220.500657,91 C218.565576,91 217,92.5647986 217,94.5 C217,96.4343257 218.565576,98 220.500657,98 L241.501095,98 C243.435299,98 245,96.4334501 245,94.5 C245,92.5647986 243.435299,91 241.501095,91 Z" id="Shape"></path>
            <path d="M241.500876,133 C239.564799,133 238,134.565674 238,136.5 L238,143.5 C238,145.435201 239.564799,147 241.500876,147 C243.435201,147 245,145.434326 245,143.5 L245,136.5 C245,134.565674 243.435201,133 241.500876,133 Z" id="Shape"></path>
            <path d="M241.501095,140 L220.500657,140 C218.565576,140 217,141.565674 217,143.5 C217,145.435201 218.565576,147 220.500657,147 L241.501095,147 C243.435299,147 245,145.434326 245,143.5 C245,141.565674 243.435299,140 241.501095,140 Z" id="Shape"></path>
            <path d="M241.500876,91 C239.564799,91 238,92.5647986 238,94.5 L238,101.5 C238,103.434326 239.564799,105 241.500876,105 C243.435201,105 245,103.434326 245,101.5 L245,94.5 C245,92.5647986 243.435201,91 241.500876,91 Z" id="Shape"></path>
            <path d="M417.499124,91 C415.564799,91 414,92.5647497 414,94.4998905 L414,143.500109 C414,145.43525 415.564799,147 417.499124,147 C419.435201,147 421,145.434375 421,143.500109 L421,94.4998905 C421,92.5647497 419.435201,91 417.499124,91 Z" id="Shape"></path>
            <path d="M297.499124,91 C295.564799,91 294,92.5647497 294,94.4998905 L294,143.500109 C294,145.43525 295.564799,147 297.499124,147 C299.434326,147 301,145.434375 301,143.500109 L301,94.4998905 C301,92.5647497 299.435201,91 297.499124,91 Z" id="Shape"></path>
            <path d="M311.500876,140 L297.499124,140 C295.564799,140 294,141.565674 294,143.5 C294,145.435201 295.564799,147 297.499124,147 L311.500876,147 C313.435201,147 315,145.434326 315,143.5 C315,141.565674 313.435201,140 311.500876,140 Z" id="Shape"></path>
            <path d="M311.500876,91 C309.564799,91 308,92.5647497 308,94.4998905 L308,143.500109 C308,145.43525 309.564799,147 311.500876,147 C313.435201,147 315,145.434375 315,143.500109 L315,94.4998905 C315,92.5647497 313.435201,91 311.500876,91 Z" id="Shape"></path>
            <path d="M311.500876,91 L297.499124,91 C295.564799,91 294,92.5647986 294,94.5 C294,96.4343257 295.564799,98 297.499124,98 L311.500876,98 C313.435201,98 315,96.4334501 315,94.5 C315,92.5647986 313.435201,91 311.500876,91 Z" id="Shape"></path>
            <path d="M416.4993,98 L318.5007,98 C316.566472,98 315,99.5656743 315,101.5 C315,103.434326 316.566472,105 318.5007,105 L416.4993,105 C418.43528,105 420,103.434326 420,101.5 C420,99.5656743 418.43528,98 416.4993,98 Z" id="Shape"></path>
            <path d="M416.4993,133 L318.5007,133 C316.566472,133 315,134.565674 315,136.5 C315,138.434326 316.566472,140 318.5007,140 L416.4993,140 C418.43528,140 420,138.434326 420,136.5 C420,134.565674 418.43528,133 416.4993,133 Z" id="Shape"></path>
            <path d="M402.499343,112 L325.500657,112 C323.566452,112 322,113.565674 322,115.5 C322,117.435201 323.566452,119 325.500657,119 L402.499343,119 C404.432672,119 406,117.435201 406,115.5 C406,113.565674 404.433548,112 402.499343,112 Z" id="Shape"></path>
            <path d="M283.499343,112 L248.500657,112 C246.564701,112 245,113.565674 245,115.5 C245,117.435201 246.564701,119 248.500657,119 L283.499343,119 C285.433548,119 287,117.435201 287,115.5 C287,113.565674 285.433548,112 283.499343,112 Z" id="Shape"></path>
            <path d="M220.5,168 C218.565283,168 217,169.567541 217,171.504174 L217,325.495826 C217,327.433335 218.565283,329 220.5,329 C222.433842,329 224,327.433335 224,325.495826 L224,171.504174 C224,169.567541 222.432966,168 220.5,168 Z" id="Shape"></path>
        </g>
    </g>
</svg>