<svg width="518" height="442" xmlns="http://www.w3.org/2000/svg"><g fill-rule="nonzero" fill="none"><path fill="#656D78" d="M428.947 163.068l-5.655 5.655-28.271 28.272-5.654 5.654-11.308-11.308 2.827-2.827 33.925-33.926 2.828-2.828z"/><path d="M228.33 422.038a316.223 316.223 0 0 1-90.86-46.653l14.19-14.19.226-.227a48.066 48.066 0 0 0 10.856-16.62c42.69 31.149 92.28 48.625 142.66 52.524 5.423.452 10.85.679 16.223.74 12.667.342 25.273-.282 37.83-1.75l.055.054-.05 40.084a292.692 292.692 0 0 1-32.23 1.584 295.944 295.944 0 0 1-50.044-3.903c-16.565-2.542-32.848-6.39-48.856-11.643z" fill="#FFCE54"/><g fill="#3A3847"><path d="M409.327 171.722c-1.562-1.563-1.59-4.119-.027-5.682 1.563-1.562 4.064-1.59 5.62-.033l.062.06a4 4 0 0 1 0 5.655 4 4 0 0 1-5.655 0zM392.365 188.685c-1.563-1.563-1.59-4.12-.028-5.682 1.563-1.563 4.065-1.59 5.622-.034l.06.06a4.001 4.001 0 0 1 0 5.656 4.001 4.001 0 0 1-5.654 0z"/></g><path d="M140.579 304.426c12.494 12.495 12.496 32.738 0 45.234-12.496 12.496-32.739 12.495-45.234 0-12.496-12.496-12.496-32.738 0-45.234 12.496-12.496 32.738-12.496 45.234 0z" fill="#5D9CEC"/><path d="M106.653 315.734c10.53-10.53 26.521-12.076 38.785-4.86-1.353-2.279-2.893-4.482-4.86-6.448-12.495-12.496-32.737-12.496-45.233 0-12.496 12.496-12.496 32.738 0 45.234 1.966 1.965 4.169 3.505 6.449 4.859-7.217-12.264-5.671-28.255 4.86-38.785z" opacity=".3" fill="#FFF"/><path d="M129.27 338.35c-10.53 10.531-26.52 12.077-38.784 4.86 1.353 2.28 2.893 4.484 4.86 6.45 12.494 12.495 32.738 12.496 45.234 0 12.496-12.496 12.495-32.738 0-45.233-1.966-1.966-4.17-3.507-6.45-4.86 7.216 12.263 5.67 28.254-4.86 38.784z" opacity=".2" fill="#000"/><path d="M130.341 280.738c7.92 2.031 15.384 6.217 21.547 12.38 6.216 6.216 10.347 13.627 12.379 21.546 2.662 9.772 2.092 20.181-1.524 29.683a48.05 48.05 0 0 1-11.082 16.847l-14.19 14.19-30.818 30.817-67.85-67.85 30.816-30.818 14.417-14.417a48.066 48.066 0 0 1 16.621-10.856c9.502-3.615 19.967-4.13 29.684-1.522zm10.238 23.688c-12.496-12.496-32.738-12.496-45.234 0-12.496 12.496-12.496 32.738 0 45.234 12.495 12.494 32.738 12.496 45.234 0 12.496-12.496 12.495-32.739 0-45.234z" fill="#656D78"/><path d="M89.69 298.771a48.066 48.066 0 0 1 16.621-10.856c9.503-3.615 19.967-4.13 29.684-1.523 6.688 1.717 13.01 5.057 18.538 9.745-.861-1.015-1.684-2.06-2.644-3.02-6.162-6.162-13.627-10.348-21.546-12.379-9.718-2.607-20.182-2.092-29.685 1.523a48.066 48.066 0 0 0-16.62 10.856L69.62 307.534l-30.817 30.818 5.654 5.654 30.817-30.817 14.417-14.416-.002-.002z" opacity=".2" fill="#FFF"/><path d="M146.239 355.32a48.066 48.066 0 0 0 10.856-16.621c3.616-9.502 4.13-19.967 1.523-29.685-1.716-6.687-5.057-13.009-9.745-18.536 1.016.86 2.06 1.683 3.021 2.644 6.162 6.162 10.348 13.628 12.38 21.546 2.606 9.718 2.092 20.182-1.525 29.684a48.05 48.05 0 0 1-10.856 16.62l-14.417 14.418-30.817 30.817-5.654-5.654 30.817-30.817 14.417-14.417z" opacity=".2" fill="#000"/><path d="M151.887 360.968l-.226.226-14.19 14.19c2.18 1.619 4.405 3.138 6.62 4.688l13.224-13.224.226-.226a48.066 48.066 0 0 0 10.856-16.62c.193-.504.277-1.027.447-1.53-2.02-1.391-4.097-2.672-6.1-4.125a48.05 48.05 0 0 1-10.857 16.62z" opacity=".2" fill="#000"/><g fill="#F6BB42"><path d="M206.454 204.626l-11.651 11.65c-16.902-27.878-36.245-70.965-35.453-102.514l-110.764 25.73-.397.054c-.507-5.367-.734-10.916-.85-16.332l.679-.006 312.288-72.545.055.055L338.48 72.6l-.397-.397-162.618 37.772c-1.472 28.727 16.4 68.986 30.99 94.65zM240.324 238.496l-11.651 11.651c27.88 16.902 70.965 36.245 102.514 35.452l-25.729 110.764-.055.398c5.368.507 10.917.734 16.333.85l.005-.68 72.546-312.287-.056-.055-21.882 21.882.398.397-37.772 162.618c-28.727 1.472-68.987-16.402-94.651-30.99z"/></g><path d="M350.071 61.008l10.29-10.29-.055-.055-312.287 72.544-.68.006c.062 2.667.144 5.366.27 8.057l302.462-70.262z" opacity=".5" fill="#FFF"/><path d="M69.62 307.534a316.2 316.2 0 0 1-46.654-90.86 316.095 316.095 0 0 1-11.694-48.8 302.471 302.471 0 0 1-3.85-50.098 292.51 292.51 0 0 1 1.585-32.23l40.084-.05.055.055c-1.408 12.495-2.033 25.102-1.806 37.663.116 5.417.342 10.966.85 16.333 3.843 50.436 21.32 100.027 52.468 142.715a48.066 48.066 0 0 0-16.62 10.856l-14.419 14.416z" fill="#FFCE54"/><path d="M9.007 96.853l39.231-.05c.277-3.755.486-7.52.907-11.253l-.055-.055-40.083.049a292.51 292.51 0 0 0-1.584 32.23c-.016 1.441.138 2.866.148 4.301.155-8.392.547-16.813 1.436-25.222z" opacity=".5" fill="#FFF"/><path d="M348.151 435.997l.05-39.231c3.755-.277 7.52-.485 11.254-.906l.055.055-.05 40.083a292.692 292.692 0 0 1-32.23 1.585c-1.442.015-2.866-.138-4.302-.15 8.394-.154 16.815-.546 25.223-1.436z" opacity=".2" fill="#000"/><path d="M206.454 204.626L338.479 72.6l21.882-21.882.735-.734c-1.696-12.098 2.092-24.71 11.308-33.926 15.604-15.604 40.938-15.604 56.542 0s15.604 40.939 0 56.542c-9.216 9.216-21.828 13.005-33.925 11.31l-16.962 16.962-5.654 5.654-16.963-16.963-39.58 39.58 16.962 16.963-5.655 5.655-86.79 86.791-11.652 11.651-64.46 64.461c-2.032-7.919-6.163-15.328-12.38-21.546-6.163-6.162-13.627-10.348-21.546-12.38l64.46-64.46 11.653-11.652zM411.984 33.02c-6.217-6.218-16.397-6.22-22.617 0-6.22 6.22-6.217 16.399 0 22.617 6.217 6.216 16.397 6.22 22.617-.001 6.22-6.22 6.218-16.399 0-22.616z" fill="#FFCE54"/><path d="M84.036 293.117l-.226.227-14.19 14.19c-1.618-2.18-3.137-4.406-4.688-6.62l13.224-13.224.226-.227a48.066 48.066 0 0 1 16.621-10.856c.503-.193 1.027-.276 1.53-.446 1.391 2.02 2.672 4.097 4.124 6.1a48.066 48.066 0 0 0-16.62 10.856zM135.996 275.083l-5.655 5.655c7.92 2.031 15.384 6.217 21.547 12.38 6.216 6.216 10.347 13.627 12.379 21.546l5.655-5.655c-2.033-7.918-6.163-15.328-12.38-21.546-6.162-6.163-13.628-10.348-21.546-12.38z" opacity=".2" fill="#000"/><path d="M361.096 49.984l-.735.734L338.48 72.6 206.454 204.626l-11.651 11.65-58.807 58.807c2.821.724 5.555 1.822 8.227 3.081l56.234-56.233 11.65-11.651L344.134 78.254l21.882-21.882.735-.734c-1.696-12.098 2.093-24.71 11.309-33.925 14.635-14.635 37.731-15.36 53.43-2.543-.85-1.038-1.577-2.145-2.543-3.111C413.342.454 388.008.454 372.404 16.058c-9.216 9.216-13.005 21.828-11.308 33.926z" opacity=".5" fill="#FFF"/><path d="M423.292 66.946c-9.216 9.216-21.828 13.005-33.925 11.308l-.735.735-21.882 21.882-132.026 132.026-11.65 11.65-56.234 56.234c1.265 2.666 2.358 5.394 3.082 8.228l58.806-58.807 11.651-11.65 132.026-132.026 21.882-21.882.734-.735c12.097 1.696 24.71-2.093 33.925-11.309 15.604-15.603 15.604-40.938 0-56.541-.966-.967-2.074-1.692-3.111-2.543 12.816 15.698 12.093 38.795-2.543 53.43z" opacity=".2" fill="#000"/><path d="M383.942 94.878l10.29-10.29.055.056-72.545 312.286-.005.68c-2.667-.06-5.366-.144-8.057-.27l70.262-302.462zM246.033 244.205l1.646-1.645a337.446 337.446 0 0 1-7.3-4.009l-11.65 11.651a293.851 293.851 0 0 0 7.133 4.174l10.171-10.17z" opacity=".2" fill="#000"/><g opacity=".2" fill="#000"><path d="M324.387 75.384l13.694-3.182.398.398 21.882-21.882-.055-.055-14.586 3.388-12.895 12.895zM206.454 204.626a334.717 334.717 0 0 1-4.009-7.3l-1.645 1.646-10.171 10.17a292.895 292.895 0 0 0 4.174 7.135l11.65-11.651z"/></g><g fill="#FFCE54"><path d="M508.106 253.537l-28.271 28.272-79.16-79.16-5.654-5.654 28.271-28.272 5.654 5.654zM372.405 106.526l-2.828 2.828 39.58 39.58 5.654 5.654-33.925 33.926-5.655-5.655-2.999-2.999-13.285-13.285-23.296-23.296-2.827 2.827-16.963-16.963 39.58-39.58z"/></g><g fill="#F6BB42"><path d="M16.18 281.81l16.963 16.963-11.309 11.308L4.872 293.12zM123.611 389.24l33.926 33.927-11.308 11.309-33.927-33.927z"/></g><path d="M355.436 89.562l16.963 16.963-5.655 5.654-16.963-16.963z" opacity=".5" fill="#FFF"/><path d="M321.51 123.489l16.962 16.963-5.654 5.654-16.963-16.963z" opacity=".2" fill="#000"/><path d="M369.571 109.354l39.58 39.58-5.655 5.654-39.58-39.58z" opacity=".5" fill="#FFF"/><path d="M341.301 137.624l39.58 39.58-5.654 5.653-39.58-39.58z" opacity=".2" fill="#000"/><path d="M428.99 174.33l79.16 79.16-5.654 5.654-79.16-79.16z" opacity=".5" fill="#FFF"/><path d="M406.327 196.992l79.16 79.161-5.654 5.654-79.16-79.16zM409.155 148.937l5.655 5.655-33.926 33.926-5.655-5.655z" opacity=".2" fill="#000"/><path d="M426.118 165.901l5.654 5.654-33.925 33.926-5.654-5.654z" opacity=".2" fill="#000"/><path d="M417.64 151.766l11.308 11.308-5.654 5.655-11.308-11.308z" opacity=".2" fill="#FFF"/><path d="M383.713 185.693L395.021 197l-5.654 5.654-11.308-11.308z" opacity=".2" fill="#000"/><path d="M16.18 281.81l5.655 5.655-11.309 11.308-5.654-5.654z" opacity=".5" fill="#FFF"/><path d="M151.888 417.518l5.654 5.654-11.308 11.309-5.654-5.654zM123.611 389.24l5.654 5.655-11.309 11.308-5.654-5.654z" opacity=".2" fill="#000"/><g fill="#3A3847"><path d="M92.518 352.487c-14.03-14.031-14.03-36.858 0-50.888 14.03-14.03 36.857-14.03 50.888 0 14.03 14.03 14.03 36.857 0 50.888-14.03 14.03-36.857 14.03-50.888 0zm45.234-45.234c-10.912-10.911-28.67-10.91-39.58 0-10.91 10.91-10.91 28.669 0 39.58 10.91 10.91 28.67 10.91 39.58 0 10.91-10.911 10.91-28.67 0-39.58z"/><path d="M103.826 409.03l-67.852-67.852a3.995 3.995 0 0 1 0-5.654L81.21 290.29c5.168-5.169 11.22-9.122 17.995-11.756 10.232-3.893 21.652-4.479 32.175-1.662 17.444 4.489 32.253 19.264 36.769 36.79 2.822 10.42 2.236 21.838-1.669 32.104a51.903 51.903 0 0 1-11.766 18.028l-45.234 45.234a3.994 3.994 0 0 1-5.653.001zm-59.37-70.678l62.197 62.196 42.18-42.18c4.605-4.606 7.951-9.73 10.183-15.473 3.302-8.669 3.799-18.33 1.396-27.183-3.82-14.864-16.316-27.315-31.06-31.103-8.955-2.396-18.63-1.9-27.27 1.386a43.963 43.963 0 0 0-15.22 9.95l-42.406 42.407z"/><path d="M154.715 425.993l-28.272-28.272a3.996 3.996 0 0 1 0-5.654 3.996 3.996 0 0 1 5.654 0l28.272 28.272a3.995 3.995 0 0 1 0 5.654 3.995 3.995 0 0 1-5.654 0zM143.406 437.301l-28.272-28.271a3.996 3.996 0 0 1 0-5.654 3.996 3.996 0 0 1 5.654 0l28.272 28.271a3.995 3.995 0 0 1 0 5.654 3.995 3.995 0 0 1-5.654 0z"/><path d="M143.406 437.301a3.995 3.995 0 0 1 0-5.654l11.309-11.308a3.995 3.995 0 0 1 5.654 0 3.995 3.995 0 0 1 0 5.654l-11.31 11.308a3.995 3.995 0 0 1-5.653 0zM41.628 324.216l-16.962-16.963a3.996 3.996 0 0 1 0-5.654 3.996 3.996 0 0 1 5.654 0l16.963 16.962a3.996 3.996 0 0 1 0 5.655 3.995 3.995 0 0 1-5.655 0z"/><path d="M19.012 312.907L2.049 295.944a3.995 3.995 0 0 1 0-5.654l11.309-11.308a3.995 3.995 0 0 1 5.654 0l16.962 16.962a3.996 3.996 0 0 1 .001 5.655l-11.309 11.309a3.996 3.996 0 0 1-5.654 0zm-8.481-19.789l11.308 11.308 5.654-5.655-11.308-11.308-5.654 5.655zM127.514 283.565a4.001 4.001 0 0 1 0-5.654L358.27 47.157a3.996 3.996 0 0 1 5.654 0 3.996 3.996 0 0 1 0 5.654L133.168 283.565a4.001 4.001 0 0 1-5.654 0zM375.232 103.699a3.995 3.995 0 0 1 0-5.654l16.962-16.963a3.995 3.995 0 0 1 5.654 0 3.997 3.997 0 0 1 0 5.654L380.886 103.7a3.996 3.996 0 0 1-5.654 0z"/><path d="M383.26 84.362a4.002 4.002 0 0 1-.87-4.353 4 4 0 0 1 5.217-2.17c2.378.98 4.998 1.673 7.998 2.117 11.325 1.584 22.455-2.123 30.513-10.182 14.03-14.03 14.03-36.857 0-50.888-14.03-14.03-36.857-14.03-50.887 0-8.06 8.06-11.768 19.188-10.178 30.541.399 2.695 1.102 5.337 2.148 8.056a4.001 4.001 0 0 1-2.297 5.168 4.016 4.016 0 0 1-5.169-2.297c-1.261-3.277-2.112-6.48-2.596-9.784-1.946-13.89 2.588-27.49 12.436-37.338 17.147-17.148 45.05-17.145 62.196 0 17.145 17.146 17.147 45.049 0 62.196-9.849 9.849-23.448 14.382-37.311 12.44-3.683-.545-6.91-1.404-9.898-2.636a4.017 4.017 0 0 1-1.303-.87zM179.142 405.64a4.002 4.002 0 0 1-.74-4.639l3.618-7.128a3.986 3.986 0 0 1 5.372-1.75c1.989.983 2.756 3.395 1.762 5.372l-3.617 7.13a4.003 4.003 0 0 1-5.379 1.755 4.064 4.064 0 0 1-1.016-.74zM225.503 424.865a3.99 3.99 0 0 1-.967-4.08l2.485-7.576a3.996 3.996 0 0 1 5.047-2.55c2.093.667 3.247 2.948 2.551 5.047l-2.485 7.575a3.997 3.997 0 0 1-5.047 2.552 3.96 3.96 0 0 1-1.584-.968zM274.327 436.539a4.015 4.015 0 0 1-1.01-4.004l1.159-7.29a4.007 4.007 0 0 1 4.588-3.318c2.165.331 3.661 2.38 3.318 4.578l-1.247 7.807a4.016 4.016 0 0 1-1.121 2.194c-1.568 1.567-4.125 1.596-5.687.033zM323.232 437.692l-.055-7.94a3.998 3.998 0 0 1 3.965-4.03 3.996 3.996 0 0 1 4.02 3.975l.06 7.859-7.99.136zM355.458 436.014v-.11l.054-40a4.004 4.004 0 0 1 4.004-3.992 4.005 4.005 0 0 1 3.997 4.009l-.055 40.088-8 .005zM39.365 265.862a4.023 4.023 0 0 1-.74-1.016 4.003 4.003 0 0 1 1.755-5.378l7.13-3.617c1.97-1 4.388-.216 5.371 1.761a3.987 3.987 0 0 1-1.749 5.373l-7.13 3.617a4.002 4.002 0 0 1-4.637-.74zM20.139 219.501a3.948 3.948 0 0 1-.967-1.585 3.996 3.996 0 0 1 2.551-5.047l7.576-2.485a3.984 3.984 0 0 1 5.047 2.55 3.996 3.996 0 0 1-2.551 5.048l-7.576 2.484a3.987 3.987 0 0 1-4.08-.965zM8.443 170.7a3.942 3.942 0 0 1-1.12-2.17 4.001 4.001 0 0 1 3.297-4.599l7.856-1.298a4.002 4.002 0 0 1 4.6 3.286 4.002 4.002 0 0 1-3.296 4.599l-7.857 1.298a3.982 3.982 0 0 1-3.48-1.115zM4.54 120.58a3.92 3.92 0 0 1-1.17-2.817c.005-2.203 1.74-3.98 3.942-3.986l7.996.067c2.203.005 3.98 1.806 3.976 4.02a3.998 3.998 0 0 1-4.031 3.964l-7.863-.055a4.096 4.096 0 0 1-2.85-1.193zM6.119 88.343a3.932 3.932 0 0 1-1.165-2.745c-.028-2.19 1.65-3.991 3.837-4.046h.11l40.182-.061a4.006 4.006 0 0 1 4.01 3.997 4.004 4.004 0 0 1-3.993 4.004l-40.088.055a4.08 4.08 0 0 1-2.893-1.204z"/><path d="M386.54 58.465c-7.797-7.796-7.794-20.478 0-28.271 7.793-7.794 20.474-7.796 28.27 0 7.797 7.797 7.795 20.478.001 28.271-7.794 7.794-20.475 7.797-28.271 0zm22.616-22.617c-4.676-4.676-12.286-4.677-16.962 0-4.677 4.677-4.678 12.286 0 16.963 4.676 4.677 12.286 4.676 16.962 0 4.677-4.677 4.677-12.286 0-16.963zM318.799 400.438a4.001 4.001 0 0 1-1.065-3.738l50.603-217.748a4 4 0 0 1 4.798-2.987c2.152.522 3.498 2.642 2.993 4.804l-50.604 217.747a4 4 0 0 1-4.798 2.988 4.049 4.049 0 0 1-1.927-1.066zM332.203 272.37a3.995 3.995 0 0 1-1.068-3.736l23.918-102.966a3.999 3.999 0 0 1 4.798-2.988c2.128.5 3.498 2.643 2.992 4.804l-23.918 102.967a3.999 3.999 0 0 1-6.722 1.918zM302.576 399.587a3.992 3.992 0 0 1-1.066-3.738l25.837-111.103a3.999 3.999 0 0 1 4.798-2.988c2.161.521 3.496 2.656 2.993 4.804L309.296 397.67a3.989 3.989 0 0 1-4.794 2.982 3.968 3.968 0 0 1-1.926-1.066z"/><path d="M225.901 253.03a3.99 3.99 0 0 1-.592-4.899 4.006 4.006 0 0 1 5.495-1.353c27.31 16.566 69.983 35.638 100.338 34.878a4.015 4.015 0 0 1 4.097 3.898 3.991 3.991 0 0 1-3.895 4.094c-32.053.812-75.09-18.083-104.692-36.023a3.96 3.96 0 0 1-.75-.596z"/><path d="M237.552 241.378a3.995 3.995 0 0 1 4.798-6.3c27.477 15.616 66.196 31.816 92.477 30.471 2.195-.107 4.084 1.583 4.196 3.788a3.992 3.992 0 0 1-3.788 4.196c-35.232 1.804-83.022-23.657-96.831-31.504a4.133 4.133 0 0 1-.852-.65zM45.192 126.034a3.976 3.976 0 0 1-1.067-1.926 3.99 3.99 0 0 1 2.982-4.793l312.29-72.547a4.01 4.01 0 0 1 4.804 2.992 4 4 0 0 1-2.986 4.799L48.929 127.1a4.006 4.006 0 0 1-3.737-1.067zM172.636 112.802a3.999 3.999 0 0 1 1.918-6.722l162.618-37.772c2.165-.497 4.29.857 4.804 2.993a3.999 3.999 0 0 1-2.987 4.799L176.37 113.87a4.004 4.004 0 0 1-3.734-1.069zM45.76 142.318a4.03 4.03 0 0 1-1.072-1.92 4.011 4.011 0 0 1 2.993-4.806l110.76-25.726a4.018 4.018 0 0 1 4.805 2.993 3.999 3.999 0 0 1-2.988 4.798L49.491 143.39a3.992 3.992 0 0 1-3.732-1.07z"/><path d="M191.976 219.104c-.221-.22-.426-.47-.597-.751-17.94-29.603-36.836-72.638-36.024-104.692a3.993 3.993 0 0 1 4.094-3.895 4.011 4.011 0 0 1 3.899 4.098c-.76 30.355 18.312 73.027 34.878 100.337a4.004 4.004 0 0 1-1.354 5.495 3.99 3.99 0 0 1-4.896-.592z"/><path d="M203.627 207.453a4.163 4.163 0 0 1-.652-.85c-7.846-13.81-33.307-61.601-31.505-96.833a3.993 3.993 0 0 1 4.197-3.788 3.993 3.993 0 0 1 3.788 4.197c-1.344 26.28 14.856 65 30.471 92.476a3.994 3.994 0 0 1-6.3 4.798zM406.33 151.76l-39.58-39.58a3.995 3.995 0 0 1 0-5.653 3.996 3.996 0 0 1 5.655-.001l39.58 39.58a3.997 3.997 0 0 1 0 5.655 3.997 3.997 0 0 1-5.656 0zM372.404 185.686l-39.58-39.58a3.995 3.995 0 0 1 0-5.654 3.995 3.995 0 0 1 5.654 0l39.58 39.58a3.996 3.996 0 0 1 0 5.655 3.997 3.997 0 0 1-5.654-.001zM313.034 131.97a3.995 3.995 0 0 1 0-5.654l39.58-39.58a3.996 3.996 0 0 1 5.655 0 3.997 3.997 0 0 1 0 5.654l-39.58 39.58a3.995 3.995 0 0 1-5.655 0zM161.44 317.49a4 4 0 0 1 0-5.653l162.902-162.903a3.996 3.996 0 0 1 5.655 0 3.997 3.997 0 0 1 0 5.654L167.093 317.491a4.002 4.002 0 0 1-5.654 0z"/><path d="M369.577 109.354L352.614 92.39a3.996 3.996 0 0 1 0-5.655 3.996 3.996 0 0 1 5.655 0l16.963 16.963a3.997 3.997 0 0 1 0 5.654 3.997 3.997 0 0 1-5.655 0zM329.997 148.933a3.995 3.995 0 0 1 0-5.654l5.654-5.654a3.995 3.995 0 0 1 5.654 0 3.996 3.996 0 0 1 0 5.654l-5.654 5.654a3.996 3.996 0 0 1-5.654 0z"/><path d="M329.997 148.933l-16.963-16.963a3.995 3.995 0 0 1 0-5.654 3.995 3.995 0 0 1 5.654 0l16.963 16.963a3.996 3.996 0 0 1 0 5.654 3.996 3.996 0 0 1-5.654 0zM363.923 115.008a3.996 3.996 0 0 1 0-5.655l5.655-5.655a3.995 3.995 0 0 1 5.654 0 3.997 3.997 0 0 1 0 5.654l-5.655 5.655a3.996 3.996 0 0 1-5.654 0zM471.353 290.29a3.995 3.995 0 0 1 0-5.654l39.58-39.58a3.996 3.996 0 0 1 5.655 0 3.996 3.996 0 0 1 0 5.653l-39.58 39.58a3.995 3.995 0 0 1-5.655 0zM375.232 194.168a3.995 3.995 0 0 1 0-5.654l39.58-39.58a3.995 3.995 0 0 1 5.654 0 3.997 3.997 0 0 1 0 5.653l-39.58 39.58a3.996 3.996 0 0 1-5.654 0z"/><path d="M386.54 205.476l-11.308-11.308a3.995 3.995 0 0 1 0-5.654 3.995 3.995 0 0 1 5.654 0l11.308 11.308a3.995 3.995 0 0 1 0 5.654 3.995 3.995 0 0 1-5.654 0z"/><path d="M386.54 205.476a3.995 3.995 0 0 1 0-5.654l39.58-39.58a3.996 3.996 0 0 1 5.654 0 3.996 3.996 0 0 1 0 5.653l-39.58 39.58a3.995 3.995 0 0 1-5.654 0z"/><path d="M426.12 165.896l-11.309-11.308a3.996 3.996 0 0 1 0-5.655 3.995 3.995 0 0 1 5.655 0l11.308 11.308a3.996 3.996 0 0 1 0 5.654 3.996 3.996 0 0 1-5.655.001zM505.28 256.364l-79.16-79.16a3.996 3.996 0 0 1 0-5.655 3.996 3.996 0 0 1 5.654 0l79.16 79.16a3.996 3.996 0 0 1 0 5.654 3.996 3.996 0 0 1-5.655.001zM477.008 284.636l-79.16-79.16a3.995 3.995 0 0 1 0-5.654 3.995 3.995 0 0 1 5.654 0l79.16 79.16a3.995 3.995 0 0 1 0 5.654 3.995 3.995 0 0 1-5.654 0zM166.189 278.816a4 4 0 0 1 0-5.654l124.229-124.229a3.995 3.995 0 0 1 5.654 0 3.996 3.996 0 0 1 0 5.654l-124.23 124.229a4 4 0 0 1-5.653 0zM66.797 310.366a5.272 5.272 0 0 1-.397-.452c-20.673-28.006-36.565-58.96-47.234-92.013a319.716 319.716 0 0 1-11.844-49.404 306.863 306.863 0 0 1-3.898-50.746c-.06-10.916.48-21.915 1.607-32.627-.006-2.203 1.772-3.95 3.98-3.949 2.215.006 3.992 1.84 3.993 4.037-1.12 11.17-1.652 21.872-1.585 32.54-.11 16.476 1.17 33.108 3.793 49.49 2.58 16.372 6.466 32.584 11.557 48.188 10.409 32.242 25.904 62.423 46.069 89.723a4.006 4.006 0 0 1-.845 5.594 3.991 3.991 0 0 1-5.196-.38zM134.637 378.206a3.993 3.993 0 0 1-.381-5.195 4.007 4.007 0 0 1 5.593-.846c27.3 20.166 57.482 35.66 89.712 46.07 15.528 5.102 31.756 8.961 48.227 11.495a293.67 293.67 0 0 0 49.414 3.86c10.717.06 21.419-.47 31.838-1.569a4.15 4.15 0 0 1 .696-.011c.127-.006.26-.005.364 0 2.204.116 3.91 1.977 3.8 4.185a3.99 3.99 0 0 1-3.843 3.8 3.93 3.93 0 0 1-.452.01 298.221 298.221 0 0 1-32.396 1.575 301.18 301.18 0 0 1-50.668-3.953c-16.88-2.591-33.528-6.561-49.453-11.795-33.036-10.663-63.991-26.554-91.997-47.228a5.071 5.071 0 0 1-.454-.398zM97.836 285.094a4.228 4.228 0 0 1-.408-.475C66.605 242.38 48.2 192.323 44.208 139.85c-.453-4.76-.728-10.038-.866-16.56-.227-12.562.386-25.4 1.839-38.194.238-2.192 2.22-3.765 4.417-3.522 2.187.254 3.772 2.225 3.523 4.417-1.403 12.446-2.005 24.942-1.784 37.145.132 6.305.398 11.408.829 16.034 3.897 51.055 21.777 99.7 51.722 140.733 1.297 1.784.916 4.285-.868 5.582a4.002 4.002 0 0 1-5.184-.391zM159.91 347.169a4.002 4.002 0 0 1-.391-5.185c1.297-1.784 3.799-2.164 5.582-.868 41.005 29.917 89.624 47.824 140.606 51.773 5.075.414 10.436.663 15.963.724 12.203.32 24.737-.255 37.322-1.728a4.001 4.001 0 0 1 4.439 3.512 4.003 4.003 0 0 1-3.507 4.433c-12.965 1.512-25.886 2.11-38.404 1.772-5.654-.055-11.209-.31-16.448-.745-52.446-4.064-102.478-22.49-144.686-53.28a4.132 4.132 0 0 1-.476-.408z"/></g></g></svg>