<?xml version="1.0" encoding="UTF-8"?>
<svg width="518px" height="442px" viewBox="0 0 518 442" version="1.1" xmlns="http://www.w3.org/2000/svg" xmlns:xlink="http://www.w3.org/1999/xlink">
    <!-- Generator: Sketch 49 (51002) - http://www.bohemiancoding.com/sketch -->
    <title>sextant</title>
    <desc>Created with Sketch.</desc>
    <defs></defs>
    <g id="Page-1" stroke="none" stroke-width="1" fill="none" fill-rule="evenodd">
        <g id="sextant" transform="translate(250.500000, 194.000000) rotate(45.000000) translate(-250.500000, -194.000000) translate(-2.000000, -62.000000)" fill-rule="nonzero">
            <polygon id="Shape" fill="#656D78" points="356.809 107.947 356.809 115.944 356.809 155.926 356.809 163.922 340.817 163.922 340.817 159.924 340.817 111.946 340.817 107.947"></polygon>
            <path d="M398.071,432.924 C368.085,448.277 335.381,458.99 300.834,464.183 L300.834,444.115 C300.834,444.029 300.834,443.873 300.834,443.795 C300.834,436.923 299.397,430.363 296.758,424.366 C348.969,416.206 396.393,393.498 434.774,360.63 C438.928,357.115 442.926,353.438 446.768,349.682 C455.967,340.967 464.44,331.612 472.28,321.695 L472.358,321.695 L500.666,350.073 C493.864,358.475 486.594,366.471 478.996,373.984 C467.157,385.978 454.444,396.856 440.85,406.61 C427.339,416.526 413.104,425.318 398.071,432.924 Z" id="Shape" fill="#FFCE54"></path>
            <g id="Group" transform="translate(345.000000, 119.000000)" fill="#3A3847">
                <path d="M4.055,8.939 C1.845,8.939 0.018,7.151 0.018,4.941 C0.018,2.731 1.767,0.943 3.969,0.943 L4.055,0.943 C6.257,0.943 8.053,2.731 8.053,4.941 C8.053,7.151 6.257,8.939 4.055,8.939 Z" id="Shape"></path>
                <path d="M4.055,32.928 C1.845,32.928 0.018,31.139 0.018,28.93 C0.018,26.72 1.767,24.931 3.969,24.931 L4.055,24.931 C6.257,24.931 8.053,26.72 8.053,28.93 C8.053,31.139 6.257,32.928 4.055,32.928 Z" id="Shape"></path>
            </g>
            <path d="M252.857,411.809 C270.527,411.809 284.842,426.122 284.842,443.794 C284.842,461.466 270.528,475.779 252.857,475.779 C235.185,475.779 220.872,461.466 220.872,443.794 C220.872,426.122 235.185,411.809 252.857,411.809 Z" id="Shape" fill="#5D9CEC"></path>
            <g id="Group" opacity="0.3" transform="translate(220.000000, 411.000000)" fill="#FFFFFF">
                <path d="M16.864,32.794 C16.864,17.902 27.078,5.502 40.853,1.933 C38.284,1.278 35.637,0.809 32.857,0.809 C15.185,0.809 0.872,15.122 0.872,32.794 C0.872,50.466 15.185,64.779 32.857,64.779 C35.637,64.779 38.283,64.31 40.853,63.655 C27.078,60.086 16.864,47.686 16.864,32.794 Z" id="Shape"></path>
            </g>
            <g id="Group" opacity="0.2" transform="translate(244.000000, 411.000000)" fill="#000000">
                <path d="M24.849,32.794 C24.849,47.686 14.635,60.086 0.861,63.655 C3.43,64.31 6.077,64.779 8.858,64.779 C26.528,64.779 40.843,50.466 40.843,32.794 C40.843,15.122 26.529,0.809 8.858,0.809 C6.078,0.809 3.43,1.278 0.861,1.933 C14.635,5.502 24.849,17.902 24.849,32.794 Z" id="Shape"></path>
            </g>
            <path d="M228.868,402.298 C235.904,398.135 244.142,395.816 252.857,395.816 C261.649,395.816 269.81,398.135 276.846,402.298 C285.639,407.326 292.596,415.089 296.758,424.365 C299.398,430.362 300.834,436.922 300.834,443.794 C300.834,443.872 300.834,444.028 300.834,444.114 L300.834,464.182 L300.834,507.764 L204.878,507.764 L204.878,464.182 L204.878,443.793 C204.878,436.921 206.315,430.361 208.954,424.364 C213.117,415.089 220.153,407.326 228.868,402.298 Z M252.857,411.809 C235.185,411.809 220.872,426.122 220.872,443.794 C220.872,461.466 235.185,475.779 252.857,475.779 C270.527,475.779 284.842,461.466 284.842,443.794 C284.842,426.122 270.528,411.809 252.857,411.809 Z" id="Shape" fill="#656D78"></path>
            <g id="Group" opacity="0.2" transform="translate(204.000000, 395.000000)" fill="#FFFFFF">
                <path d="M8.875,48.794 C8.875,41.922 10.312,35.362 12.951,29.365 C17.114,20.089 24.149,12.326 32.864,7.298 C38.807,3.783 45.639,1.675 52.863,1.081 C51.536,0.972 50.216,0.815 48.858,0.815 C40.143,0.815 31.905,3.134 24.869,7.297 C16.154,12.325 9.119,20.088 4.956,29.364 C2.317,35.361 0.88,41.921 0.88,48.793 L0.88,69.182 L0.88,112.764 L8.877,112.764 L8.877,69.182 L8.877,48.794 L8.875,48.794 Z" id="Shape"></path>
            </g>
            <g id="Group" opacity="0.2" transform="translate(248.000000, 395.000000)" fill="#000000">
                <path d="M44.846,48.794 C44.846,41.922 43.409,35.362 40.77,29.365 C36.608,20.089 29.572,12.326 20.857,7.298 C14.915,3.783 8.082,1.675 0.859,1.081 C2.186,0.972 3.506,0.815 4.865,0.815 C13.579,0.815 21.818,3.134 28.854,7.297 C37.569,12.325 44.604,20.088 48.766,29.364 C51.406,35.361 52.842,41.921 52.842,48.793 L52.842,69.182 L52.842,112.764 L44.846,112.764 L44.846,69.182 L44.846,48.794 Z" id="Shape"></path>
            </g>
            <g id="Group" opacity="0.2" transform="translate(296.000000, 422.000000)" fill="#000000">
                <path d="M4.834,21.794 C4.834,21.872 4.834,22.028 4.834,22.114 L4.834,42.182 C7.521,41.784 10.168,41.285 12.83,40.816 L12.83,22.114 C12.83,22.028 12.83,21.872 12.83,21.794 C12.83,14.922 11.393,8.362 8.754,2.365 C8.535,1.873 8.224,1.444 7.989,0.968 C5.576,1.413 3.202,1.975 0.758,2.365 C3.398,8.362 4.834,14.922 4.834,21.794 Z" id="Shape"></path>
            </g>
            <g id="Group" transform="translate(58.000000, 77.000000)" fill="#F6BB42">
                <path d="M170.868,217.659 L170.868,234.136 C139.203,226.374 95.059,209.585 73.311,186.716 L13.182,283.231 L12.94,283.551 C8.786,280.114 4.702,276.351 0.79,272.603 L1.266,272.119 L170.79,0.001 L170.868,0.001 L170.868,30.947 L170.306,30.947 L82.027,172.644 C101.299,193.998 142.404,209.827 170.868,217.659 Z" id="Shape"></path>
                <path d="M218.768,217.659 L218.768,234.136 C250.433,226.374 294.577,209.585 316.325,186.716 L376.454,283.231 L376.696,283.551 C380.85,280.114 384.934,276.351 388.846,272.603 L388.369,272.119 L218.846,0.001 L218.768,0.001 L218.768,30.947 L219.33,30.947 L307.61,172.644 C288.337,193.998 247.231,209.827 218.768,217.659 Z" id="Shape"></path>
            </g>
            <g id="Group" opacity="0.5" transform="translate(58.000000, 77.000000)" fill="#FFFFFF">
                <path d="M170.868,14.553 L170.868,0.001 L170.79,0.001 L1.266,272.118 L0.79,272.602 C2.719,274.445 4.686,276.295 6.678,278.108 L170.868,14.553 Z" id="Shape"></path>
            </g>
            <path d="M204.879,464.183 C170.333,458.991 137.629,448.277 107.643,432.924 C92.689,425.318 78.375,416.526 64.866,406.686 C51.27,396.855 38.557,385.977 26.72,373.983 C19.121,366.47 11.852,358.474 5.05,350.072 L33.358,321.694 L33.436,321.694 C41.276,331.525 49.748,340.881 58.791,349.603 C62.703,353.351 66.787,357.115 70.941,360.551 C109.322,393.497 156.746,416.205 208.956,424.365 C206.317,430.362 204.88,436.922 204.88,443.794 L204.879,464.183 Z" id="Shape" fill="#FFCE54"></path>
            <g id="Group" opacity="0.5" transform="translate(5.000000, 321.000000)" fill="#FFFFFF">
                <path d="M8.045,37.068 L35.751,9.292 C33.291,6.441 30.777,3.631 28.435,0.694 L28.357,0.694 L0.049,29.071 C6.851,37.473 14.12,45.469 21.719,52.982 C22.726,54.012 23.843,54.911 24.865,55.918 C19.04,49.874 13.363,43.643 8.045,37.068 Z" id="Shape"></path>
            </g>
            <g id="Group" opacity="0.2" transform="translate(464.000000, 321.000000)" fill="#000000">
                <path d="M28.668,37.068 L0.962,9.292 C3.422,6.441 5.937,3.631 8.279,0.694 L8.357,0.694 L36.665,29.072 C29.863,37.474 22.593,45.47 14.995,52.983 C13.987,54.013 12.871,54.912 11.848,55.919 C17.674,49.874 23.351,43.643 28.668,37.068 Z" id="Shape"></path>
            </g>
            <path d="M228.868,294.659 L228.868,107.947 L228.868,77.001 L228.868,75.962 C219.115,68.607 212.875,57.01 212.875,43.977 C212.875,21.91 230.789,3.996 252.857,3.996 C274.924,3.996 292.838,21.91 292.838,43.977 C292.838,57.01 286.599,68.607 276.846,75.962 L276.846,99.951 L276.846,107.947 L252.857,107.947 L252.857,163.922 L276.846,163.922 L276.846,171.919 L276.846,294.66 L276.846,311.137 L276.846,402.299 C269.81,398.136 261.65,395.817 252.857,395.817 C244.142,395.817 235.904,398.136 228.868,402.299 L228.868,311.137 L228.868,294.659 Z M252.857,27.984 C244.064,27.984 236.864,35.18 236.864,43.976 C236.864,52.773 244.064,59.969 252.857,59.969 C261.649,59.969 268.849,52.773 268.849,43.976 C268.849,35.18 261.65,27.984 252.857,27.984 Z" id="Shape" fill="#FFCE54"></path>
            <g id="Group" opacity="0.2" transform="translate(196.000000, 422.000000)" fill="#000000">
                <path d="M8.879,21.794 C8.879,21.872 8.879,22.028 8.879,22.114 L8.879,42.182 C6.193,41.784 3.546,41.285 0.883,40.816 L0.883,22.114 C0.883,22.028 0.883,21.872 0.883,21.794 C0.883,14.922 2.32,8.362 4.959,2.365 C5.178,1.873 5.49,1.444 5.725,0.968 C8.138,1.413 10.512,1.975 12.955,2.365 C10.316,8.362 8.879,14.922 8.879,21.794 Z" id="Shape"></path>
            </g>
            <g id="Group" opacity="0.2" transform="translate(228.000000, 387.000000)" fill="#000000">
                <path d="M0.868,7.301 L0.868,15.298 C7.904,11.135 16.142,8.816 24.857,8.816 C33.649,8.816 41.81,11.135 48.846,15.298 L48.846,7.301 C41.81,3.139 33.65,0.82 24.857,0.82 C16.142,0.819 7.904,3.139 0.868,7.301 Z" id="Shape"></path>
            </g>
            <g id="Group" opacity="0.5" transform="translate(212.000000, 3.000000)" fill="#FFFFFF">
                <path d="M16.868,72.962 L16.868,74.001 L16.868,104.947 L16.868,291.659 L16.868,308.136 L16.868,391.301 C19.375,389.818 22.084,388.661 24.864,387.662 L24.864,308.136 L24.864,291.659 L24.864,104.947 L24.864,74.001 L24.864,72.962 C15.111,65.607 8.872,54.01 8.872,40.977 C8.872,20.28 24.692,3.436 44.855,1.398 C43.52,1.265 42.223,0.996 40.857,0.996 C18.789,0.996 0.875,18.91 0.875,40.977 C0.875,54.01 7.114,65.607 16.868,72.962 Z" id="Shape"></path>
            </g>
            <g id="Group" opacity="0.2" transform="translate(248.000000, 3.000000)" fill="#000000">
                <path d="M36.842,40.977 C36.842,54.01 30.603,65.607 20.849,72.962 L20.849,74.001 L20.849,104.947 L20.849,291.659 L20.849,308.136 L20.849,387.662 C23.629,388.653 26.331,389.809 28.846,391.301 L28.846,308.136 L28.846,291.659 L28.846,104.947 L28.846,74.001 L28.846,72.962 C38.599,65.607 44.838,54.01 44.838,40.977 C44.838,18.91 26.924,0.996 4.857,0.996 C3.49,0.996 2.194,1.266 0.859,1.398 C21.021,3.436 36.842,20.279 36.842,40.977 Z" id="Shape"></path>
            </g>
            <g id="Group" opacity="0.2" transform="translate(276.000000, 77.000000)" fill="#000000">
                <path d="M0.768,14.553 L0.768,0.001 L0.846,0.001 L170.369,272.118 L170.846,272.602 C168.917,274.445 166.95,276.295 164.958,278.108 L0.768,14.553 Z" id="Shape"></path>
            </g>
            <g id="Group" opacity="0.2" transform="translate(276.000000, 292.000000)" fill="#000000">
                <path d="M8.842,2.659 L8.842,0.332 C6.101,1.159 3.406,1.956 0.846,2.659 L0.846,19.136 C3.43,18.503 6.117,17.793 8.842,17.043 L8.842,2.659 Z" id="Shape"></path>
            </g>
            <g id="Group" opacity="0.2" transform="translate(220.000000, 77.000000)" fill="#000000">
                <polygon id="Shape" points="0.872 42.88 8.305 30.947 8.868 30.947 8.868 0.001 8.79 0.001 0.872 12.71 0.872 30.947"></polygon>
                <path d="M8.868,217.659 C6.306,216.956 3.613,216.159 0.872,215.332 L0.872,217.659 L0.872,232.043 C3.597,232.793 6.283,233.503 8.868,234.136 L8.868,217.659 Z" id="Shape"></path>
            </g>
            <g id="Group" transform="translate(252.000000, 107.000000)" fill="#FFCE54">
                <polygon id="Shape" points="224.754 8.944 224.754 48.926 112.805 48.926 104.809 48.926 104.809 8.944 112.805 8.944"></polygon>
                <polygon id="Shape" points="24.846 0.947 24.846 4.946 80.82 4.946 88.817 4.946 88.817 52.924 80.82 52.924 76.579 52.924 57.791 52.924 24.846 52.924 24.846 56.922 0.857 56.922 0.857 0.947"></polygon>
            </g>
            <g id="Group" transform="translate(148.000000, 483.000000)" fill="#F6BB42">
                <rect id="Rectangle-path" x="0.902" y="0.78" width="23.989" height="15.993"></rect>
                <rect id="Rectangle-path" x="152.832" y="0.78" width="47.979" height="15.993"></rect>
            </g>
            <g id="Group" opacity="0.5" transform="translate(252.000000, 107.000000)" fill="#FFFFFF">
                <rect id="Rectangle-path" x="0.852" y="0.95" width="23.989" height="7.997"></rect>
            </g>
            <g id="Group" opacity="0.2" transform="translate(252.000000, 155.000000)" fill="#000000">
                <rect id="Rectangle-path" x="0.852" y="0.93" width="23.989" height="7.996"></rect>
            </g>
            <g id="Group" opacity="0.5" transform="translate(276.000000, 111.000000)" fill="#FFFFFF">
                <rect id="Rectangle-path" x="0.842" y="0.95" width="55.974" height="7.997"></rect>
            </g>
            <g id="Group" opacity="0.2" transform="translate(276.000000, 151.000000)" fill="#000000">
                <rect id="Rectangle-path" x="0.842" y="0.93" width="55.974" height="7.996"></rect>
            </g>
            <g id="Group" opacity="0.5" transform="translate(364.000000, 115.000000)" fill="#FFFFFF">
                <rect id="Rectangle-path" x="0.802" y="0.88" width="111.95" height="7.996"></rect>
            </g>
            <g id="Group" opacity="0.2" transform="translate(364.000000, 147.000000)" fill="#000000">
                <rect id="Rectangle-path" x="0.802" y="0.93" width="111.95" height="7.996"></rect>
            </g>
            <g id="Group" opacity="0.2" transform="translate(332.000000, 111.000000)" fill="#000000">
                <rect id="Rectangle-path" x="0.822" y="0.95" width="7.997" height="47.978"></rect>
            </g>
            <g id="Group" opacity="0.2" transform="translate(356.000000, 111.000000)" fill="#000000">
                <rect id="Rectangle-path" x="0.812" y="0.95" width="7.996" height="47.978"></rect>
            </g>
            <g id="Group" opacity="0.2" transform="translate(340.000000, 107.000000)" fill="#FFFFFF">
                <rect id="Rectangle-path" x="0.822" y="0.95" width="15.992" height="7.997"></rect>
            </g>
            <g id="Group" opacity="0.2" transform="translate(340.000000, 155.000000)" fill="#000000">
                <rect id="Rectangle-path" x="0.822" y="0.93" width="15.992" height="7.996"></rect>
            </g>
            <g id="Group" opacity="0.5" transform="translate(148.000000, 483.000000)" fill="#FFFFFF">
                <rect id="Rectangle-path" x="0.902" y="0.78" width="7.997" height="15.993"></rect>
            </g>
            <g id="Group" opacity="0.2" transform="translate(340.000000, 483.000000)" fill="#000000">
                <rect id="Rectangle-path" x="0.822" y="0.78" width="7.996" height="15.993"></rect>
            </g>
            <g id="Group" opacity="0.2" transform="translate(300.000000, 483.000000)" fill="#000000">
                <rect id="Rectangle-path" x="0.832" y="0.78" width="7.996" height="15.993"></rect>
            </g>
            <g id="Group" fill="#3A3847">
                <path d="M252.857,479.777 C233.014,479.777 216.874,463.636 216.874,443.794 C216.874,423.952 233.015,407.811 252.857,407.811 C272.699,407.811 288.84,423.952 288.84,443.794 C288.84,463.636 272.699,479.777 252.857,479.777 Z M252.857,415.807 C237.426,415.807 224.87,428.364 224.87,443.794 C224.87,459.224 237.427,471.781 252.857,471.781 C268.287,471.781 280.844,459.224 280.844,443.794 C280.844,428.364 268.287,415.807 252.857,415.807 Z" id="Shape"></path>
                <path d="M300.834,511.763 L204.878,511.763 C202.668,511.763 200.88,509.975 200.88,507.765 L200.88,443.794 C200.88,436.485 202.364,429.41 205.292,422.757 C209.774,412.769 217.435,404.28 226.868,398.83 C242.377,389.67 263.296,389.646 278.882,398.846 C288.245,404.218 295.905,412.706 300.403,422.726 C303.347,429.411 304.831,436.486 304.831,443.794 L304.831,507.765 C304.832,509.975 303.044,511.763 300.834,511.763 Z M208.877,503.767 L296.836,503.767 L296.836,444.115 C296.836,437.602 295.579,431.613 293.096,425.974 C289.301,417.509 282.82,410.326 274.862,405.765 C261.65,397.956 244.01,397.988 230.906,405.734 C222.879,410.373 216.389,417.564 212.602,425.998 C210.134,431.613 208.877,437.602 208.877,443.795 L208.877,503.767 Z" id="Shape"></path>
                <path d="M348.813,487.774 L308.831,487.774 C306.622,487.774 304.833,485.986 304.833,483.776 C304.833,481.566 306.622,479.778 308.831,479.778 L348.813,479.778 C351.023,479.778 352.811,481.566 352.811,483.776 C352.811,485.986 351.023,487.774 348.813,487.774 Z" id="Shape"></path>
                <path d="M348.813,503.767 L308.831,503.767 C306.622,503.767 304.833,501.979 304.833,499.769 C304.833,497.559 306.622,495.771 308.831,495.771 L348.813,495.771 C351.023,495.771 352.811,497.559 352.811,499.769 C352.811,501.979 351.023,503.767 348.813,503.767 Z" id="Shape"></path>
                <path d="M348.813,503.767 C346.603,503.767 344.815,501.979 344.815,499.769 L344.815,483.776 C344.815,481.566 346.603,479.778 348.813,479.778 C351.023,479.778 352.811,481.566 352.811,483.776 L352.811,499.769 C352.811,501.979 351.023,503.767 348.813,503.767 Z" id="Shape"></path>
                <path d="M196.882,495.771 L172.893,495.771 C170.683,495.771 168.895,493.982 168.895,491.773 C168.895,489.562 170.683,487.774 172.893,487.774 L196.882,487.774 C199.092,487.774 200.88,489.562 200.88,491.773 C200.881,493.982 199.092,495.771 196.882,495.771 Z" id="Shape"></path>
                <path d="M172.893,503.767 L148.904,503.767 C146.694,503.767 144.906,501.979 144.906,499.769 L144.906,483.776 C144.906,481.566 146.694,479.778 148.904,479.778 L172.893,479.778 C175.103,479.778 176.892,481.566 176.892,483.776 L176.892,499.769 C176.892,501.979 175.103,503.767 172.893,503.767 Z M152.903,495.771 L168.895,495.771 L168.895,487.774 L152.903,487.774 L152.903,495.771 Z" id="Shape"></path>
                <path d="M228.868,406.296 C226.658,406.296 224.87,404.499 224.87,402.298 L224.87,75.962 C224.87,73.753 226.658,71.964 228.868,71.964 C231.078,71.964 232.866,73.753 232.866,75.962 L232.866,402.298 C232.866,404.499 231.078,406.296 228.868,406.296 Z" id="Shape"></path>
                <path d="M276.846,103.949 C274.635,103.949 272.848,102.161 272.848,99.951 L272.848,75.962 C272.848,73.753 274.635,71.964 276.846,71.964 C279.055,71.964 280.844,73.753 280.844,75.962 L280.844,99.951 C280.844,102.161 279.055,103.949 276.846,103.949 Z" id="Shape"></path>
                <path d="M268.849,84.599 C267.287,84.599 265.796,83.674 265.156,82.136 C264.313,80.098 265.273,77.759 267.311,76.912 C269.685,75.924 272.028,74.561 274.464,72.754 C283.592,65.866 288.84,55.375 288.84,43.978 C288.84,24.136 272.699,7.995 252.857,7.995 C233.014,7.995 216.874,24.137 216.874,43.978 C216.874,55.375 222.121,65.867 231.273,72.77 C233.46,74.394 235.826,75.765 238.488,76.948 C240.503,77.846 241.416,80.208 240.518,82.227 C239.612,84.242 237.262,85.14 235.239,84.257 C232.03,82.832 229.164,81.169 226.485,79.174 C215.287,70.729 208.876,57.906 208.876,43.979 C208.876,19.729 228.609,7.10542736e-15 252.856,7.10542736e-15 C277.103,7.10542736e-15 296.835,19.729 296.835,43.979 C296.835,57.907 290.424,70.729 279.249,79.159 C276.259,81.377 273.369,83.052 270.386,84.293 C269.88,84.501 269.364,84.599 268.849,84.599 Z" id="Shape"></path>
                <path d="M351.694,456.109 C350.007,456.109 348.446,455.04 347.891,453.353 L345.409,445.754 C344.721,443.653 345.869,441.397 347.97,440.718 C350.071,440.007 352.32,441.17 353.015,443.271 L355.498,450.87 C356.185,452.963 355.037,455.226 352.936,455.914 C352.522,456.046 352.108,456.109 351.694,456.109 Z" id="Shape"></path>
                <path d="M398.071,436.922 C396.611,436.922 395.205,436.118 394.502,434.72 L390.902,427.607 C389.902,425.63 390.699,423.226 392.667,422.234 C394.619,421.226 397.048,422.023 398.04,423.999 L401.64,431.113 C402.639,433.089 401.843,435.494 399.875,436.486 C399.297,436.781 398.68,436.922 398.071,436.922 Z" id="Shape"></path>
                <path d="M440.849,410.653 C439.311,410.653 437.975,409.794 437.303,408.536 L432.969,402.562 C431.673,400.766 432.079,398.267 433.867,396.971 C435.632,395.674 438.138,396.065 439.45,397.862 L444.089,404.264 C444.581,404.952 444.847,405.764 444.847,406.608 C444.847,408.825 443.059,410.653 440.849,410.653 Z" id="Shape"></path>
                <path d="M476.246,376.887 L470.593,371.312 C469.016,369.766 469,367.236 470.546,365.658 C472.092,364.089 474.638,364.073 476.199,365.627 L481.799,371.141 L476.246,376.887 Z" id="Shape"></path>
                <path d="M497.846,352.913 L497.768,352.835 L469.523,324.513 C467.969,322.951 467.969,320.413 469.531,318.859 C471.093,317.305 473.631,317.297 475.192,318.867 L503.5,347.253 L497.846,352.913 Z" id="Shape"></path>
                <path d="M154.019,456.109 C153.605,456.109 153.191,456.047 152.778,455.914 C150.677,455.226 149.529,452.963 150.216,450.87 L152.699,443.271 C153.386,441.17 155.65,440.015 157.743,440.718 C159.844,441.397 160.992,443.654 160.305,445.754 L157.822,453.353 C157.268,455.039 155.706,456.109 154.019,456.109 Z" id="Shape"></path>
                <path d="M107.642,436.922 C107.033,436.922 106.416,436.781 105.838,436.485 C103.87,435.493 103.073,433.088 104.073,431.112 L107.673,423.998 C108.665,422.022 111.077,421.226 113.045,422.233 C115.013,423.225 115.81,425.629 114.81,427.606 L111.21,434.719 C110.508,436.118 109.102,436.922 107.642,436.922 Z" id="Shape"></path>
                <path d="M64.865,410.685 C64.053,410.685 63.241,410.451 62.538,409.943 C60.742,408.654 60.328,406.156 61.617,404.359 L66.255,397.886 C67.544,396.081 70.05,395.683 71.831,396.956 C73.627,398.252 74.04,400.743 72.752,402.539 L68.114,409.013 C67.333,410.107 66.106,410.685 64.865,410.685 Z" id="Shape"></path>
                <path d="M26.664,378.004 C25.633,378.004 24.61,377.621 23.845,376.84 C22.291,375.278 22.26,372.795 23.814,371.234 L29.515,365.627 C31.077,364.073 33.607,364.089 35.169,365.658 C36.715,367.236 36.699,369.766 35.122,371.312 L29.523,376.833 C28.733,377.606 27.694,378.004 26.664,378.004 Z" id="Shape"></path>
                <path d="M4.986,354.093 C3.986,354.093 2.987,353.726 2.221,352.976 C0.652,351.446 0.566,348.986 2.073,347.401 L2.151,347.323 L30.521,318.867 C32.083,317.298 34.621,317.305 36.182,318.859 C37.744,320.414 37.744,322.951 36.19,324.513 L7.883,352.898 C7.087,353.694 6.04,354.093 4.986,354.093 Z" id="Shape"></path>
                <path d="M252.857,63.968 C241.831,63.968 232.866,54.999 232.866,43.977 C232.866,32.955 241.831,23.987 252.857,23.987 C263.883,23.987 272.848,32.955 272.848,43.977 C272.848,54.999 263.883,63.968 252.857,63.968 Z M252.857,31.983 C246.243,31.983 240.862,37.363 240.862,43.977 C240.862,50.591 246.242,55.972 252.857,55.972 C259.471,55.972 264.851,50.591 264.851,43.977 C264.851,37.363 259.471,31.983 252.857,31.983 Z" id="Shape"></path>
                <path d="M446.768,353.679 C445.44,353.679 444.128,353.007 443.372,351.789 L325.183,162.036 C324.02,160.162 324.589,157.698 326.463,156.531 C328.354,155.379 330.805,155.926 331.977,157.812 L450.165,347.565 C451.329,349.439 450.759,351.899 448.885,353.07 C448.22,353.476 447.494,353.679 446.768,353.679 Z" id="Shape"></path>
                <path d="M365.688,253.643 C364.36,253.643 363.048,252.976 362.292,251.757 L306.396,162.036 C305.232,160.162 305.802,157.698 307.676,156.531 C309.534,155.379 312.018,155.926 313.189,157.812 L369.085,247.533 C370.249,249.407 369.679,251.871 367.805,253.038 C367.148,253.447 366.414,253.643 365.688,253.643 Z" id="Shape"></path>
                <path d="M434.695,364.549 C433.359,364.549 432.055,363.878 431.298,362.659 L371.006,265.828 C369.842,263.954 370.412,261.491 372.286,260.323 C374.183,259.163 376.636,259.729 377.799,261.603 L438.092,358.442 C439.256,360.316 438.686,362.776 436.811,363.94 C436.148,364.354 435.421,364.549 434.695,364.549 Z" id="Shape"></path>
                <path d="M276.846,315.134 C275.041,315.134 273.409,313.916 272.964,312.089 C272.434,309.942 273.753,307.778 275.893,307.247 C306.918,299.649 350.578,282.961 371.505,260.96 C373.043,259.362 375.566,259.312 377.158,260.819 C378.76,262.341 378.822,264.876 377.299,266.468 C355.208,289.707 311.415,306.778 277.798,315.024 C277.478,315.103 277.158,315.134 276.846,315.134 Z" id="Shape"></path>
                <path d="M276.846,298.657 C275.088,298.657 273.48,297.501 272.988,295.72 C272.403,293.596 273.652,291.395 275.784,290.809 C306.255,282.422 345.089,266.499 362.721,246.965 C364.197,245.337 366.728,245.196 368.367,246.676 C370.007,248.156 370.139,250.682 368.655,252.322 C345.018,278.51 293.221,294.299 277.908,298.515 C277.548,298.61 277.197,298.657 276.846,298.657 Z" id="Shape"></path>
                <path d="M59.266,353.116 C58.54,353.116 57.813,352.921 57.15,352.508 C55.276,351.344 54.706,348.884 55.869,347.01 L225.393,74.889 C226.572,73.003 229.032,72.456 230.906,73.608 C232.78,74.775 233.35,77.239 232.187,79.113 L62.663,351.227 C61.905,352.445 60.593,353.116 59.266,353.116 Z" id="Shape"></path>
                <path d="M140.026,253.643 C139.299,253.643 138.573,253.448 137.91,253.038 C136.035,251.871 135.466,249.407 136.629,247.533 L224.909,105.836 C226.088,103.954 228.548,103.408 230.422,104.556 C232.297,105.723 232.866,108.187 231.703,110.061 L143.423,251.758 C142.665,252.975 141.353,253.643 140.026,253.643 Z" id="Shape"></path>
                <path d="M71.182,364.229 C70.455,364.229 69.73,364.034 69.066,363.628 C67.192,362.456 66.622,359.988 67.785,358.114 L127.913,261.603 C129.093,259.725 131.553,259.17 133.427,260.323 C135.301,261.491 135.871,263.954 134.707,265.828 L74.578,362.347 C73.822,363.566 72.509,364.229 71.182,364.229 Z" id="Shape"></path>
                <path d="M228.868,315.134 C228.556,315.134 228.235,315.103 227.915,315.025 C194.297,306.779 150.505,289.709 128.414,266.469 C126.892,264.876 126.954,262.342 128.555,260.82 C130.156,259.308 132.67,259.363 134.209,260.961 C155.137,282.962 198.796,299.65 229.821,307.248 C231.961,307.779 233.28,309.942 232.749,312.09 C232.304,313.916 230.672,315.134 228.868,315.134 Z" id="Shape"></path>
                <path d="M228.868,298.657 C228.516,298.657 228.165,298.61 227.806,298.516 C212.493,294.299 160.696,278.51 137.058,252.323 C135.575,250.683 135.707,248.157 137.347,246.677 C138.987,245.19 141.517,245.33 142.993,246.966 C160.626,266.5 199.46,282.423 229.93,290.81 C232.062,291.396 233.311,293.597 232.725,295.721 C232.234,297.501 230.625,298.657 228.868,298.657 Z" id="Shape"></path>
                <path d="M332.82,115.944 L276.846,115.944 C274.635,115.944 272.848,114.156 272.848,111.946 C272.848,109.736 274.635,107.947 276.846,107.947 L332.82,107.947 C335.03,107.947 336.819,109.736 336.819,111.946 C336.819,114.156 335.029,115.944 332.82,115.944 Z" id="Shape"></path>
                <path d="M332.82,163.922 L276.846,163.922 C274.635,163.922 272.848,162.134 272.848,159.924 C272.848,157.714 274.635,155.926 276.846,155.926 L332.82,155.926 C335.03,155.926 336.819,157.714 336.819,159.924 C336.819,162.134 335.029,163.922 332.82,163.922 Z" id="Shape"></path>
                <path d="M252.857,167.92 C250.647,167.92 248.859,166.132 248.859,163.922 L248.859,107.947 C248.859,105.738 250.647,103.949 252.857,103.949 C255.066,103.949 256.855,105.738 256.855,107.947 L256.855,163.922 C256.855,166.132 255.067,167.92 252.857,167.92 Z" id="Shape"></path>
                <path d="M276.846,406.296 C274.635,406.296 272.848,404.499 272.848,402.298 L272.848,171.919 C272.848,169.709 274.635,167.92 276.846,167.92 C279.055,167.92 280.844,169.709 280.844,171.919 L280.844,402.298 C280.844,404.499 279.055,406.296 276.846,406.296 Z" id="Shape"></path>
                <path d="M276.846,111.946 L252.857,111.946 C250.647,111.946 248.859,110.157 248.859,107.947 C248.859,105.738 250.647,103.949 252.857,103.949 L276.846,103.949 C279.055,103.949 280.844,105.738 280.844,107.947 C280.844,110.157 279.055,111.946 276.846,111.946 Z" id="Shape"></path>
                <path d="M276.846,167.92 C274.635,167.92 272.848,166.132 272.848,163.922 L272.848,155.926 C272.848,153.716 274.635,151.928 276.846,151.928 C279.055,151.928 280.844,153.716 280.844,155.926 L280.844,163.922 C280.844,166.132 279.055,167.92 276.846,167.92 Z" id="Shape"></path>
                <path d="M276.846,167.92 L252.857,167.92 C250.647,167.92 248.859,166.132 248.859,163.922 C248.859,161.712 250.647,159.924 252.857,159.924 L276.846,159.924 C279.055,159.924 280.844,161.712 280.844,163.922 C280.844,166.132 279.055,167.92 276.846,167.92 Z" id="Shape"></path>
                <path d="M276.846,119.942 C274.635,119.942 272.848,118.153 272.848,115.943 L272.848,107.946 C272.848,105.737 274.635,103.948 276.846,103.948 C279.055,103.948 280.844,105.737 280.844,107.946 L280.844,115.943 C280.844,118.154 279.055,119.942 276.846,119.942 Z" id="Shape"></path>
                <path d="M476.754,167.92 C474.544,167.92 472.756,166.132 472.756,163.922 L472.756,107.947 C472.756,105.738 474.544,103.949 476.754,103.949 C478.964,103.949 480.752,105.738 480.752,107.947 L480.752,163.922 C480.752,166.132 478.964,167.92 476.754,167.92 Z" id="Shape"></path>
                <path d="M340.817,167.92 C338.606,167.92 336.819,166.132 336.819,163.922 L336.819,107.947 C336.819,105.738 338.606,103.949 340.817,103.949 C343.026,103.949 344.815,105.738 344.815,107.947 L344.815,163.922 C344.815,166.132 343.026,167.92 340.817,167.92 Z" id="Shape"></path>
                <path d="M356.809,167.92 L340.817,167.92 C338.606,167.92 336.819,166.132 336.819,163.922 C336.819,161.712 338.606,159.924 340.817,159.924 L356.809,159.924 C359.019,159.924 360.807,161.712 360.807,163.922 C360.807,166.132 359.019,167.92 356.809,167.92 Z" id="Shape"></path>
                <path d="M356.809,167.92 C354.599,167.92 352.811,166.132 352.811,163.922 L352.811,107.947 C352.811,105.738 354.599,103.949 356.809,103.949 C359.019,103.949 360.807,105.738 360.807,107.947 L360.807,163.922 C360.807,166.132 359.019,167.92 356.809,167.92 Z" id="Shape"></path>
                <path d="M356.809,111.946 L340.817,111.946 C338.606,111.946 336.819,110.157 336.819,107.947 C336.819,105.738 338.606,103.949 340.817,103.949 L356.809,103.949 C359.019,103.949 360.807,105.738 360.807,107.947 C360.807,110.157 359.019,111.946 356.809,111.946 Z" id="Shape"></path>
                <path d="M476.754,119.942 L364.805,119.942 C362.595,119.942 360.807,118.153 360.807,115.943 C360.807,113.734 362.595,111.945 364.805,111.945 L476.754,111.945 C478.964,111.945 480.752,113.734 480.752,115.943 C480.752,118.154 478.964,119.942 476.754,119.942 Z" id="Shape"></path>
                <path d="M476.754,159.924 L364.805,159.924 C362.595,159.924 360.807,158.136 360.807,155.926 C360.807,153.716 362.595,151.928 364.805,151.928 L476.754,151.928 C478.964,151.928 480.752,153.716 480.752,155.926 C480.752,158.136 478.964,159.924 476.754,159.924 Z" id="Shape"></path>
                <path d="M252.857,375.591 C250.647,375.591 248.859,373.795 248.859,371.593 L248.859,195.907 C248.859,193.697 250.647,191.909 252.857,191.909 C255.066,191.909 256.855,193.697 256.855,195.907 L256.855,371.593 C256.855,373.795 255.067,375.591 252.857,375.591 Z" id="Shape"></path>
                <path d="M204.886,468.181 C204.683,468.181 204.488,468.165 204.285,468.142 C169.864,462.957 136.738,452.306 105.823,436.478 C90.822,428.856 76.242,419.922 62.514,409.919 C48.723,399.954 35.722,388.804 23.875,376.793 C16.113,369.117 8.718,360.957 1.94,352.586 C0.378,351.032 0.401,348.54 1.963,346.979 C3.533,345.417 6.086,345.457 7.64,347.01 C14.746,355.701 21.938,363.644 29.528,371.14 C41.101,382.869 53.767,393.724 67.206,403.453 C80.606,413.206 94.818,421.921 109.452,429.355 C139.61,444.793 171.908,455.178 205.471,460.223 C207.658,460.559 209.157,462.597 208.829,464.776 C208.533,466.76 206.831,468.181 204.886,468.181 Z" id="Shape"></path>
                <path d="M300.826,468.181 C298.882,468.181 297.18,466.76 296.883,464.777 C296.555,462.598 298.055,460.56 300.24,460.224 C333.803,455.179 366.101,444.794 396.252,429.364 C410.839,421.992 425.043,413.246 438.482,403.391 C451.859,393.787 464.525,382.962 476.152,371.179 C483.773,363.644 490.965,355.701 497.556,347.557 C497.704,347.377 497.861,347.213 498.04,347.057 C498.126,346.963 498.22,346.87 498.298,346.8 C499.938,345.323 502.46,345.433 503.944,347.072 C505.349,348.618 505.318,350.977 503.913,352.476 C503.819,352.585 503.718,352.695 503.601,352.803 C496.87,361.097 489.538,369.179 481.807,376.824 C469.898,388.897 456.888,400.016 443.184,409.856 C429.416,419.96 414.837,428.925 399.875,436.485 C368.975,452.305 335.85,462.957 301.428,468.141 C301.225,468.165 301.029,468.181 300.826,468.181 Z" id="Shape"></path>
                <path d="M208.963,428.363 C208.753,428.363 208.549,428.347 208.339,428.316 C156.675,420.242 108.267,397.862 68.34,363.581 C64.654,360.535 60.727,356.998 56.018,352.484 C46.975,343.761 38.33,334.25 30.311,324.176 C28.929,322.458 29.218,319.944 30.944,318.562 C32.67,317.195 35.184,317.468 36.558,319.194 C44.367,328.987 52.777,338.249 61.562,346.721 C66.114,351.086 69.91,354.506 73.486,357.473 C112.343,390.818 159.384,412.573 209.572,420.413 C211.751,420.757 213.25,422.795 212.906,424.974 C212.594,426.95 210.9,428.363 208.963,428.363 Z" id="Shape"></path>
                <path d="M296.75,428.363 C294.813,428.363 293.119,426.95 292.807,424.974 C292.463,422.795 293.963,420.757 296.141,420.413 C346.29,412.572 393.331,390.856 432.173,357.598 C436.054,354.303 440.021,350.688 443.972,346.823 C452.827,338.42 461.284,329.151 469.141,319.21 C470.515,317.469 473.045,317.188 474.763,318.555 C476.489,319.921 476.785,322.436 475.418,324.169 C467.32,334.406 458.606,343.965 449.516,352.578 C445.479,356.537 441.371,360.285 437.358,363.682 C397.4,397.893 348.993,420.242 297.376,428.316 C297.164,428.348 296.961,428.363 296.75,428.363 Z" id="Shape"></path>
            </g>
        </g>
    </g>
</svg>